<?xml version="1.0" encoding="utf-8"?>
<!-- Generator: Adobe Illustrator 16.0.0, SVG Export Plug-In . SVG Version: 6.00 Build 0)  -->
<!DOCTYPE svg PUBLIC "-//W3C//DTD SVG 1.1//EN" "http://www.w3.org/Graphics/SVG/1.1/DTD/svg11.dtd">
<svg version="1.1" id="Layer_1" xmlns="http://www.w3.org/2000/svg" xmlns:xlink="http://www.w3.org/1999/xlink" x="0px" y="0px"
	 width="100px" height="100px" viewBox="0 0 100 100" style="enable-background:new 0 0 100 100;" xml:space="preserve">
<g>
	<path d="M80.387,77.023c-0.236,0-0.367-0.008-0.367-0.008H14.716c-2.226,0-4.614-1.143-6.395-3.053
		c-1.836-1.973-3.928-5.709-3.46-12.318c0.671-9.484,9.603-12.856,12.79-13.761c0.051-2.491,0.728-8.38,5.728-11.607
		c1.928-1.244,4.292-1.873,7.029-1.873c1.461,0,2.718,0.186,3.522,0.344c0.075-0.118,0.146-0.236,0.199-0.343
		c2.186-4.33,9.984-11.244,16.762-11.794c1.44-0.117,2.974-0.226,4.416-0.226c4.428,0,7.576,1.078,11.617,3.975
		c7.926,5.686,8.621,13.35,8.469,16.833c0.367-0.029,0.782-0.047,1.241-0.047c2.07,0,5.329,0.395,9.097,2.277
		c10.957,5.474,9.123,17.691,8.643,20.084C92.18,76.467,82.338,77.023,80.387,77.023z M30.407,37.091
		c-2.212,0-4.085,0.485-5.573,1.446c-4.982,3.214-4.489,10.215-4.482,10.285l0.096,1.205l-1.191,0.222
		c-0.45,0.084-11.051,2.173-11.717,11.589c-0.399,5.645,1.273,8.714,2.746,10.296c1.51,1.618,3.274,2.197,4.424,2.197l65.677,0.006
		c1.581,0,9.57-0.451,11.352-9.354c0.412-2.058,2-12.553-7.209-17.154c-3.299-1.647-6.113-1.994-7.896-1.994
		c-1.487,0-2.377,0.239-2.388,0.241l-2.092,0.575l0.41-2.125c0.072-0.385,1.707-9.586-7.207-15.98
		c-4.049-2.903-6.752-3.471-10.053-3.471c-1.346,0-2.812,0.105-4.197,0.218c-5.575,0.453-12.688,6.578-14.582,10.327
		c-0.345,0.682-0.917,1.401-0.981,1.481l-0.558,0.694l-0.858-0.244C34.114,37.542,32.495,37.091,30.407,37.091z"/>
</g>
</svg>
