<?xml version="1.0" encoding="utf-8"?>
<!-- Generator: Adobe Illustrator 16.0.0, SVG Export Plug-In . SVG Version: 6.00 Build 0)  -->
<!DOCTYPE svg PUBLIC "-//W3C//DTD SVG 1.1//EN" "http://www.w3.org/Graphics/SVG/1.1/DTD/svg11.dtd">
<svg version="1.1" id="Layer_1" xmlns="http://www.w3.org/2000/svg" xmlns:xlink="http://www.w3.org/1999/xlink" x="0px" y="0px"
	 width="100px" height="100px" viewBox="0 0 100 100" style="enable-background:new 0 0 100 100;" xml:space="preserve">
<path d="M50.538,78.488c-15.622,0-28.334-12.711-28.334-28.333c0-15.624,12.712-28.335,28.334-28.335
	c15.625,0,28.335,12.71,28.335,28.335C78.873,65.777,66.161,78.488,50.538,78.488z M50.538,24.737
	c-14.016,0-25.417,11.403-25.417,25.419c0,14.016,11.4,25.417,25.417,25.417c14.017,0,25.42-11.401,25.42-25.417
	C75.958,36.14,64.555,24.737,50.538,24.737z"/>
<path d="M50.538,17.715c-0.804,0-1.458-0.653-1.458-1.458v-9.73c0-0.805,0.654-1.458,1.458-1.458c0.805,0,1.457,0.653,1.457,1.458
	v9.731C51.995,17.063,51.343,17.715,50.538,17.715z"/>
<path d="M50.538,94.932c-0.804,0-1.458-0.654-1.458-1.457v-9.731c0-0.806,0.654-1.457,1.458-1.457c0.805,0,1.457,0.651,1.457,1.457
	v9.731C51.995,94.277,51.343,94.932,50.538,94.932z"/>
<path d="M93.029,50.971h-9.732c-0.806,0-1.458-0.652-1.458-1.457c0-0.805,0.652-1.458,1.458-1.458h9.732
	c0.806,0,1.457,0.652,1.457,1.458C94.486,50.32,93.835,50.971,93.029,50.971z"/>
<path d="M16.703,50.971H6.971c-0.807,0-1.458-0.652-1.458-1.457c0-0.805,0.652-1.458,1.458-1.458h9.732
	c0.804,0,1.459,0.652,1.459,1.458C18.162,50.32,17.508,50.971,16.703,50.971z"/>
<path d="M23.41,24.596c-0.373,0-0.746-0.143-1.031-0.427l-6.882-6.881c-0.57-0.569-0.57-1.491,0-2.062c0.57-0.57,1.491-0.57,2.061,0
	l6.883,6.882c0.569,0.568,0.569,1.491,0,2.062C24.157,24.454,23.784,24.596,23.41,24.596z"/>
<path d="M76.998,24.596c-0.373,0-0.747-0.143-1.03-0.427c-0.569-0.57-0.569-1.493,0-2.062l6.88-6.881c0.568-0.57,1.492-0.57,2.062,0
	c0.571,0.57,0.571,1.492,0,2.062l-6.88,6.881C77.744,24.454,77.371,24.596,76.998,24.596z"/>
<path d="M17.657,84.177c-0.372,0-0.746-0.145-1.03-0.429c-0.569-0.568-0.569-1.491,0-2.062l6.881-6.881
	c0.57-0.568,1.492-0.568,2.062,0c0.57,0.57,0.57,1.493,0,2.062l-6.881,6.88C18.403,84.032,18.03,84.177,17.657,84.177z"/>
<path d="M83.878,85.201c-0.373,0-0.747-0.143-1.03-0.428l-6.884-6.883c-0.567-0.566-0.567-1.492,0-2.062
	c0.571-0.571,1.491-0.57,2.062,0l6.883,6.882c0.57,0.569,0.57,1.492,0,2.062C84.624,85.059,84.251,85.201,83.878,85.201z"/>
</svg>
