<?xml version="1.0" encoding="utf-8"?>
<!-- Generator: Adobe Illustrator 16.0.0, SVG Export Plug-In . SVG Version: 6.00 Build 0)  -->
<!DOCTYPE svg PUBLIC "-//W3C//DTD SVG 1.1//EN" "http://www.w3.org/Graphics/SVG/1.1/DTD/svg11.dtd">
<svg version="1.1" id="Layer_1" xmlns="http://www.w3.org/2000/svg" xmlns:xlink="http://www.w3.org/1999/xlink" x="0px" y="0px"
	 width="100px" height="100px" viewBox="0 0 100 100" style="enable-background:new 0 0 100 100;" xml:space="preserve">
<path d="M62.471,28.688c-11.178,0-20.357,8.84-20.934,19.892c-0.233,0.242-0.452,0.482-0.66,0.721
	c-0.719-1.025-1.607-1.949-2.702-2.734c-3.112-2.232-5.131-2.338-8.69-2.051c-3.587,0.292-7.697,3.835-9.036,6.205
	c-1.27-0.187-3.549-0.279-5.458,0.952c-2.537,1.638-3.105,4.463-3.217,6.031c-2.601,0.808-6.312,3.069-6.63,7.547
	c-0.257,3.636,0.922,5.72,1.956,6.826c1.034,1.108,2.432,1.771,3.743,1.771c0.001,0,0.003,0,0.005,0h8.464
	c0.388,2.576,1.413,4.246,2.353,5.256c1.292,1.388,3.034,2.217,4.665,2.217l44.74-0.004c0,0,0.097,0.008,0.272,0.008
	c1.39,0,8.402-0.396,9.966-8.202c0.258-1.295,1.063-6.663-2.067-10.845c2.756-3.654,4.22-8,4.22-12.603
	C83.458,38.102,74.044,28.688,62.471,28.688z M62.471,31.298c10.135,0,18.377,8.244,18.377,18.376c0,3.891-1.199,7.568-3.453,10.698
	c-0.645-0.522-1.369-1.013-2.219-1.437c-2.938-1.47-5.395-1.658-6.863-1.595c0.025-2.625-0.703-7.662-5.975-11.442
	c-2.845-2.04-5.064-2.796-8.193-2.796c-1,0-2.061,0.074-3.055,0.154c-2.213,0.181-4.575,1.327-6.631,2.804
	C46.149,37.66,53.596,31.298,62.471,31.298z M19.188,70.373c-0.022,0.304-0.016,0.576-0.022,0.863h-8.322c0,0,0,0-0.001,0
	c-0.442,0-1.189-0.246-1.835-0.939c-0.681-0.729-1.451-2.163-1.261-4.859c0.311-4.383,5.344-5.39,5.554-5.431l1.149-0.217
	l-0.083-1.165c-0.002-0.031-0.207-3.309,2.04-4.758c1.756-1.135,4.28-0.444,4.299-0.438l0.835,0.24l0.544-0.678
	c0.061-0.076,0.375-0.475,0.575-0.871c0.821-1.624,4.275-4.779,7.038-5.003c3.173-0.257,4.501-0.191,6.956,1.569
	c1.106,0.792,1.952,1.748,2.55,2.831c-0.555-0.092-1.288-0.177-2.119-0.177c-1.95,0-3.643,0.452-5.027,1.347
	c-3.381,2.182-4,6.047-4.089,7.963C24.626,61.607,19.604,64.498,19.188,70.373z M78.746,72.609
	c-1.135,5.662-5.954,6.103-7.405,6.103l-45.019-0.004c-0.706,0-1.798-0.362-2.75-1.384c-0.958-1.029-2.046-3.038-1.782-6.768
	c0.436-6.15,7.424-7.537,7.718-7.593l1.159-0.213l-0.093-1.174c-0.004-0.046-0.328-4.616,2.896-6.696
	c0.958-0.617,2.172-0.93,3.613-0.93c1.372,0,2.435,0.295,2.441,0.297l0.833,0.24l0.544-0.676c0.047-0.059,0.464-0.58,0.718-1.084
	c1.125-2.228,5.874-6.559,9.682-6.87c0.939-0.076,1.934-0.146,2.844-0.146c2.237,0,3.965,0.367,6.67,2.307
	c5.898,4.229,4.834,10.314,4.787,10.566l-0.394,2.055l2.024-0.547c0.011-0.002,2.795-0.812,6.773,1.176
	C80.07,64.299,79.02,71.248,78.746,72.609z"/>
<path d="M62.471,26.156c0.723,0,1.305-0.585,1.305-1.305v-7.128c0-0.72-0.582-1.305-1.305-1.305c-0.722,0-1.306,0.585-1.306,1.305
	v7.128C61.165,25.571,61.749,26.156,62.471,26.156z"/>
<path d="M93.587,47.899h-7.128c-0.723,0-1.305,0.583-1.305,1.305c0,0.722,0.582,1.305,1.305,1.305h7.128
	c0.722,0,1.306-0.583,1.306-1.305C94.893,48.482,94.309,47.899,93.587,47.899z"/>
<path d="M41.681,30.812c0.255,0.255,0.589,0.382,0.923,0.382s0.668-0.127,0.923-0.382c0.51-0.508,0.51-1.336,0-1.846l-5.038-5.039
	c-0.51-0.51-1.336-0.51-1.846,0c-0.51,0.509-0.51,1.336,0,1.846L41.681,30.812z"/>
<path d="M81.846,31.195c0.334,0,0.668-0.127,0.922-0.382l5.041-5.039c0.51-0.51,0.51-1.336,0-1.846c-0.511-0.51-1.336-0.51-1.847,0
	l-5.04,5.039c-0.51,0.509-0.51,1.336,0,1.846C81.177,31.067,81.512,31.195,81.846,31.195z"/>
</svg>
