<?xml version="1.0" encoding="utf-8"?>
<!-- Generator: Adobe Illustrator 16.0.0, SVG Export Plug-In . SVG Version: 6.00 Build 0)  -->
<!DOCTYPE svg PUBLIC "-//W3C//DTD SVG 1.1//EN" "http://www.w3.org/Graphics/SVG/1.1/DTD/svg11.dtd">
<svg version="1.1" id="Layer_1" xmlns="http://www.w3.org/2000/svg" xmlns:xlink="http://www.w3.org/1999/xlink" x="0px" y="0px"
	 width="100px" height="100px" viewBox="0 0 100 100" style="enable-background:new 0 0 100 100;" xml:space="preserve">
<path d="M87.809,47.081c-3.595-1.796-6.537-1.935-8.217-1.833c0.083-2.941-0.615-8.999-6.915-13.515
	c-3.297-2.363-5.866-3.242-9.485-3.242c-1.168,0-2.405,0.087-3.569,0.183c-4.403,0.359-9.329,4.009-12.054,7.263
	c-0.855-1.291-1.944-2.445-3.303-3.419c-3.592-2.575-5.926-2.7-10.048-2.364c-4.216,0.343-9.061,4.587-10.508,7.321
	c-1.415-0.231-4.147-0.411-6.418,1.055c-2.991,1.928-3.582,5.319-3.678,7.069c-2.995,0.881-7.416,3.477-7.786,8.7
	c-0.296,4.184,1.049,6.568,2.23,7.834c1.168,1.253,2.744,1.999,4.215,1.999c0.001,0,0.003,0,0.006,0h10.167
	c0.418,3.099,1.631,5.075,2.739,6.265c1.472,1.578,3.45,2.522,5.297,2.522l52.625-0.002c0,0,0.107,0.007,0.307,0.007
	c1.6,0,9.669-0.453,11.468-9.438C95.271,61.527,96.768,51.557,87.809,47.081z M12.275,61.572c0,0-0.001,0-0.002,0
	c-0.572,0-1.53-0.312-2.347-1.188c-0.834-0.894-1.779-2.644-1.55-5.908c0.381-5.354,6.484-6.567,6.74-6.618l1.135-0.208l-0.091-1.15
	c-0.003-0.04-0.283-4.02,2.515-5.825c2.163-1.396,5.239-0.553,5.267-0.546l0.815,0.235l0.533-0.662
	c0.07-0.085,0.426-0.534,0.648-0.98c0.986-1.955,5.15-5.752,8.483-6.023c3.721-0.302,5.406-0.217,8.35,1.893
	c1.415,1.014,2.473,2.25,3.198,3.662c-0.006,0.01-0.014,0.023-0.019,0.033c-0.024,0.045-0.05,0.095-0.082,0.145
	c-0.659-0.123-1.629-0.255-2.741-0.255c-2.244,0-4.186,0.52-5.773,1.543c-3.993,2.575-4.628,7.213-4.699,9.343
	c-3.855,1.05-9.829,4.381-10.316,11.254c-0.031,0.44-0.027,0.842-0.032,1.252H12.275V61.572z M92.372,62.98
	c-1.372,6.852-7.205,7.384-8.96,7.384l-52.937-0.005c-0.883,0-2.245-0.449-3.419-1.711c-1.163-1.246-2.48-3.67-2.164-8.148
	c0.527-7.436,8.931-9.096,9.288-9.162l1.126-0.215l-0.085-1.14c-0.004-0.056-0.369-5.603,3.521-8.113
	c1.168-0.751,2.643-1.134,4.387-1.134c1.651,0,2.931,0.357,2.941,0.36l0.816,0.234l0.534-0.662c0.054-0.065,0.528-0.662,0.814-1.229
	c1.315-2.604,6.854-7.83,11.594-8.219c1.109-0.09,2.285-0.173,3.361-0.173c2.623,0,4.772,0.452,7.994,2.762
	c7.076,5.074,5.789,12.377,5.731,12.681l-0.39,2.021l1.988-0.542c0.016-0.005,3.354-0.997,8.147,1.399
	C93.959,53.014,92.699,61.348,92.372,62.98z"/>
</svg>
